<svg width="16" height="16" fill="none" viewBox="0 0 16 16" xmlns="http://www.w3.org/2000/svg"><path d="M4.033 5.323a.5.5 0 0 1 .644-.29L8 6.293l3.323-1.26a.5.5 0 1 1 .354.934L8.5 7.174v3.66a.5.5 0 0 1-1 0v-3.66L4.323 5.967a.5.5 0 0 1-.29-.644Z" fill="#424242"/><path d="M7.06 1.675a2.5 2.5 0 0 1 1.88 0l4.999 2.027A1.167 1.167 0 0 1 14.667 4.783v6.434a1.167 1.167 0 0 1-.728 1.081l-4.999 2.027a2.5 2.5 0 0 1-1.88 0l-4.999-2.027A1.167 1.167 0 0 1 1.333 11.217V4.783a1.167 1.167 0 0 1 .728-1.081l4.999-2.027Zm1.503.927a1.5 1.5 0 0 0-1.127 0l-4.999 2.027a.167.167 0 0 0-.104.154v6.434c0 .066.04.126.104.155l4.999 2.026a1.5 1.5 0 0 0 1.127 0l4.999-2.026a.167.167 0 0 0 .104-.155V4.783a.167.167 0 0 0-.104-.154l-4.999-2.027Z" fill="#424242"/></svg>
