<svg width="19" height="18" viewBox="0 0 19 18" fill="none" xmlns="http://www.w3.org/2000/svg">
<g clip-path="url(#clip0_3081_11431)">
<path opacity="0.8" fill-rule="evenodd" clip-rule="evenodd" d="M9.43021 0.183685C4.46828 0.183685 0.457031 4.2245 0.457031 9.22354C0.457031 13.2195 3.02717 16.6021 6.59264 17.7993C7.03842 17.8893 7.2017 17.6047 7.2017 17.3654C7.2017 17.1558 7.18701 16.4375 7.18701 15.689C4.69089 16.2279 4.17109 14.6114 4.17109 14.6114C3.76995 13.5637 3.17558 13.2945 3.17558 13.2945C2.3586 12.7407 3.23509 12.7407 3.23509 12.7407C4.14134 12.8006 4.61687 13.6686 4.61687 13.6686C5.41897 15.0454 6.71148 14.6564 7.23146 14.4169C7.30566 13.8332 7.54352 13.4291 7.79607 13.2047C5.80524 12.9951 3.71062 12.2169 3.71062 8.74452C3.71062 7.75673 4.06695 6.94856 4.63156 6.32003C4.54248 6.09558 4.23042 5.16748 4.72083 3.9253C4.72083 3.9253 5.47848 3.68579 7.18683 4.85322C7.91823 4.65534 8.67252 4.55468 9.43021 4.55383C10.1879 4.55383 10.9602 4.65871 11.6734 4.85322C13.382 3.68579 14.1396 3.9253 14.1396 3.9253C14.63 5.16748 14.3178 6.09558 14.2287 6.32003C14.8082 6.94856 15.1498 7.75673 15.1498 8.74452C15.1498 12.2169 13.0552 12.98 11.0495 13.2047C11.3764 13.489 11.6585 14.0277 11.6585 14.8809C11.6585 16.0931 11.6438 17.066 11.6438 17.3652C11.6438 17.6047 11.8073 17.8893 12.2529 17.7994C15.8184 16.6019 18.3885 13.2195 18.3885 9.22354C18.4032 4.2245 14.3773 0.183685 9.43021 0.183685Z" fill="#D7D7D7"/>
</g>
<defs>
<clipPath id="clip0_3081_11431">
<rect width="18" height="17.6327" fill="white" transform="translate(0.457031 0.183685)"/>
</clipPath>
</defs>
</svg>
