<svg width="342" height="228" viewBox="0 0 342 228" fill="none" xmlns="http://www.w3.org/2000/svg">
<circle cx="227.611" cy="160.216" r="113.674" transform="rotate(90 227.611 160.216)" fill="#8DC8E8" fill-opacity="0.2"/>
<circle cx="113.935" cy="160.216" r="113.674" transform="rotate(90 113.935 160.216)" fill="#42AAF4" fill-opacity="0.2"/>
<circle cx="170.775" cy="67.7839" r="113.674" transform="rotate(90 170.775 67.7839)" fill="#0090FF" fill-opacity="0.2"/>
<path fill-rule="evenodd" clip-rule="evenodd" d="M149.649 110.574C149.09 105.851 152.466 101.569 157.189 101.01L172.201 99.2323C183.578 97.8851 193.892 106.016 195.24 117.393C196.578 128.692 188.567 138.943 177.312 140.403L177.534 142.274C178.093 146.998 174.718 151.28 169.994 151.839L163.301 152.632C158.578 153.191 154.296 149.815 153.737 145.092L149.649 110.574ZM171.277 143.015C171.427 144.283 170.521 145.432 169.254 145.582L162.56 146.374C161.293 146.525 160.144 145.619 159.994 144.351L155.907 109.834C155.756 108.566 156.662 107.417 157.93 107.267L172.942 105.489C180.863 104.552 188.044 110.213 188.982 118.134C189.92 126.055 184.259 133.237 176.338 134.175L170.314 134.888L171.277 143.015Z" fill="url(#paint0_linear_3369_11619)"/>
<path fill-rule="evenodd" clip-rule="evenodd" d="M152.779 110.204C152.424 107.209 154.565 104.493 157.56 104.139L172.572 102.361C182.221 101.218 190.969 108.114 192.112 117.763C193.254 127.413 186.359 136.161 176.71 137.303L173.814 137.646L174.406 142.645C174.761 145.64 172.62 148.356 169.625 148.711L162.932 149.503C159.936 149.858 157.221 147.717 156.866 144.722L152.779 110.204ZM171.278 143.016C171.428 144.283 170.522 145.432 169.254 145.582L162.561 146.375C161.294 146.525 160.145 145.619 159.995 144.352L155.907 109.834C155.757 108.566 156.663 107.417 157.931 107.267L172.942 105.49C180.864 104.552 188.045 110.213 188.983 118.134C189.921 126.055 184.26 133.237 176.339 134.175L170.315 134.888L171.278 143.016Z" fill="#211D26"/>
<path fill-rule="evenodd" clip-rule="evenodd" d="M157.928 107.267C156.66 107.417 155.754 108.566 155.905 109.834L159.992 144.351C160.142 145.619 161.291 146.525 162.558 146.375L169.252 145.582C170.519 145.432 171.425 144.283 171.275 143.015L170.312 134.888L176.336 134.175C184.257 133.237 189.918 126.055 188.98 118.134C188.042 110.213 180.861 104.552 172.94 105.49L166.916 106.203L162.59 106.715L157.928 107.267Z" fill="white"/>
<path fill-rule="evenodd" clip-rule="evenodd" d="M165.671 113.398L164.936 113.483C163.14 113.692 161.853 115.318 162.062 117.114L162.687 122.493C162.896 124.289 164.521 125.576 166.318 125.367L167.052 125.282C170.334 124.9 172.685 121.931 172.303 118.649C171.922 115.367 168.952 113.016 165.671 113.398Z" fill="#211D26"/>
<path fill-rule="evenodd" clip-rule="evenodd" d="M165.317 119.112C165.235 118.533 165.444 117.961 165.633 117.408C165.907 116.604 165.974 115.899 165.408 115.706C164.905 115.534 164.464 116.111 164.19 116.916C163.932 117.671 163.907 118.516 163.983 119.311C163.988 119.373 163.996 119.435 164.005 119.497C164.021 119.612 164.04 119.727 164.061 119.842C164.225 120.727 164.385 121.668 164.906 122.402C165.456 123.175 166.064 123.595 166.684 123.246C167.244 122.848 167.021 122.063 166.472 121.29C166.055 120.703 165.494 120.174 165.37 119.465C165.36 119.41 165.352 119.355 165.344 119.299C165.335 119.236 165.326 119.174 165.317 119.112Z" fill="white"/>
<path d="M169.386 116.699C169.386 117.264 168.928 117.722 168.363 117.722C167.798 117.722 167.34 117.264 167.34 116.699C167.34 116.134 167.798 115.675 168.363 115.675C168.928 115.675 169.386 116.134 169.386 116.699Z" fill="white"/>
<path fill-rule="evenodd" clip-rule="evenodd" d="M177.03 111.893L176.295 111.979C174.499 112.188 173.212 113.813 173.421 115.609L174.047 120.989C174.255 122.785 175.881 124.072 177.677 123.863L178.412 123.777C181.693 123.396 184.044 120.426 183.663 117.145C183.281 113.863 180.312 111.512 177.03 111.893Z" fill="#211D26"/>
<path fill-rule="evenodd" clip-rule="evenodd" d="M176.673 117.607C176.591 117.028 176.8 116.457 176.989 115.903C177.263 115.099 177.329 114.394 176.764 114.201C176.26 114.029 175.82 114.607 175.545 115.411C175.288 116.167 175.263 117.012 175.338 117.807C175.344 117.868 175.351 117.93 175.36 117.993C175.376 118.107 175.395 118.222 175.417 118.338C175.581 119.223 175.74 120.164 176.262 120.897C176.811 121.671 177.42 122.091 178.039 121.742C178.6 121.344 178.377 120.559 177.827 119.785C177.411 119.199 176.849 118.669 176.726 117.961C176.716 117.905 176.707 117.85 176.699 117.795C176.69 117.732 176.681 117.669 176.673 117.607Z" fill="white"/>
<path d="M180.746 115.194C180.746 115.759 180.288 116.217 179.722 116.217C179.157 116.217 178.699 115.759 178.699 115.194C178.699 114.629 179.157 114.171 179.722 114.171C180.288 114.171 180.746 114.629 180.746 115.194Z" fill="white"/>
<path d="M128.627 35.1364C127.851 35.1364 127.15 35.0218 126.525 34.7926C125.906 34.5634 125.413 34.2041 125.049 33.7145C124.684 33.2249 124.502 32.5843 124.502 31.7926H126.33C126.341 32.2718 126.45 32.6494 126.658 32.9254C126.867 33.2015 127.145 33.3968 127.494 33.5114C127.848 33.6259 128.239 33.6832 128.666 33.6832C129.072 33.6832 129.437 33.6285 129.76 33.5192C130.088 33.4098 130.346 33.2405 130.533 33.0114C130.726 32.7822 130.822 32.4931 130.822 32.1442C130.822 31.8212 130.744 31.5556 130.588 31.3473C130.432 31.139 130.169 30.9567 129.799 30.8004C129.429 30.639 128.921 30.4697 128.275 30.2926C127.52 30.0895 126.882 29.8629 126.361 29.6129C125.841 29.3629 125.445 29.0478 125.174 28.6676C124.908 28.2822 124.775 27.79 124.775 27.191C124.775 26.5504 124.929 26.0218 125.236 25.6051C125.544 25.1832 125.973 24.8681 126.525 24.6598C127.078 24.4515 127.723 24.3473 128.463 24.3473C129.166 24.3473 129.807 24.4567 130.385 24.6754C130.968 24.889 131.434 25.2171 131.783 25.6598C132.132 26.1025 132.307 26.6598 132.307 27.3317H130.479C130.484 26.8108 130.288 26.4202 129.893 26.1598C129.502 25.8942 129.025 25.7614 128.463 25.7614C127.895 25.7614 127.44 25.8733 127.096 26.0973C126.757 26.316 126.588 26.6468 126.588 27.0895C126.588 27.3447 126.661 27.566 126.807 27.7535C126.953 27.9358 127.213 28.1051 127.588 28.2614C127.963 28.4176 128.492 28.5921 129.174 28.7848C129.976 29.0087 130.632 29.2483 131.143 29.5035C131.653 29.7587 132.031 30.0869 132.275 30.4879C132.52 30.8837 132.643 31.4072 132.643 32.0582C132.643 32.7666 132.466 33.3473 132.111 33.8004C131.757 34.2535 131.278 34.5895 130.674 34.8082C130.07 35.027 129.387 35.1364 128.627 35.1364ZM134.127 37.7926V27.3785H135.745L135.823 28.5817C136.099 28.1702 136.442 27.8473 136.854 27.6129C137.265 27.3733 137.75 27.2535 138.307 27.2535C138.916 27.2535 139.448 27.3994 139.901 27.691C140.359 27.9827 140.716 28.4202 140.971 29.0035C141.226 29.5869 141.354 30.3239 141.354 31.2145C141.354 32.0843 141.216 32.8082 140.94 33.3864C140.669 33.9645 140.291 34.3994 139.807 34.691C139.328 34.9827 138.776 35.1311 138.151 35.1364C137.63 35.1364 137.172 35.0322 136.776 34.8239C136.38 34.6103 136.06 34.316 135.815 33.941V37.7926H134.127ZM137.768 33.8082C138.377 33.8082 138.838 33.5843 139.151 33.1364C139.463 32.6884 139.62 32.0426 139.62 31.1989C139.62 30.3291 139.474 29.6728 139.182 29.2301C138.89 28.7874 138.474 28.566 137.932 28.566C137.416 28.566 136.979 28.7067 136.62 28.9879C136.265 29.264 136 29.5791 135.823 29.9332V32.5348C136.005 32.8942 136.26 33.1962 136.588 33.441C136.916 33.6858 137.31 33.8082 137.768 33.8082ZM146.331 35.1364C145.497 35.1364 144.802 34.9723 144.245 34.6442C143.693 34.3108 143.279 33.8473 143.003 33.2535C142.727 32.6546 142.589 31.9619 142.589 31.1754C142.589 30.3837 142.721 29.6962 142.987 29.1129C143.258 28.5244 143.659 28.0686 144.19 27.7457C144.727 27.4176 145.396 27.2535 146.198 27.2535C147.281 27.2535 148.135 27.5765 148.76 28.2223C149.385 28.8681 149.698 29.79 149.698 30.9879C149.698 31.0608 149.693 31.152 149.682 31.2614C149.677 31.3655 149.669 31.441 149.659 31.4879H144.276C144.281 31.9202 144.352 32.3186 144.487 32.6832C144.628 33.0426 144.849 33.3317 145.151 33.5504C145.453 33.7692 145.846 33.8785 146.331 33.8785C146.852 33.8785 147.26 33.764 147.557 33.5348C147.854 33.3004 148.01 32.9567 148.026 32.5035H149.69C149.664 33.066 149.51 33.5452 149.229 33.941C148.953 34.3317 148.568 34.6285 148.073 34.8317C147.583 35.0348 147.003 35.1364 146.331 35.1364ZM144.292 30.3551H148.018C148.003 29.7405 147.831 29.2744 147.503 28.9567C147.18 28.6337 146.745 28.4723 146.198 28.4723C145.635 28.4723 145.188 28.6337 144.854 28.9567C144.526 29.2796 144.339 29.7457 144.292 30.3551ZM154.612 35.1129C153.909 35.1129 153.282 34.9749 152.73 34.6989C152.177 34.4176 151.74 33.9879 151.417 33.4098C151.099 32.8317 150.94 32.0999 150.94 31.2145C150.94 30.3239 151.094 29.5869 151.401 29.0035C151.714 28.415 152.144 27.9775 152.69 27.691C153.243 27.3994 153.883 27.2535 154.612 27.2535C155.227 27.2535 155.782 27.3551 156.276 27.5582C156.771 27.7614 157.164 28.066 157.456 28.4723C157.753 28.8785 157.909 29.3916 157.925 30.0114H156.276C156.25 29.5686 156.094 29.2197 155.808 28.9645C155.521 28.7093 155.128 28.5817 154.628 28.5817C153.956 28.5817 153.461 28.8134 153.144 29.277C152.826 29.7353 152.667 30.3811 152.667 31.2145C152.667 31.7561 152.737 32.2197 152.878 32.6051C153.019 32.9905 153.232 33.2848 153.519 33.4879C153.81 33.691 154.18 33.7926 154.628 33.7926C155.138 33.7926 155.547 33.6572 155.855 33.3864C156.162 33.1155 156.323 32.7249 156.339 32.2145H157.987C157.972 32.8499 157.815 33.3837 157.519 33.816C157.222 34.2483 156.821 34.5739 156.315 34.7926C155.815 35.0061 155.248 35.1129 154.612 35.1129ZM159.62 34.9957V27.3785H161.316V34.9957H159.62ZM160.472 26.1598C160.154 26.1598 159.91 26.0765 159.738 25.9098C159.566 25.7431 159.48 25.5348 159.48 25.2848C159.48 25.0244 159.566 24.8108 159.738 24.6442C159.91 24.4775 160.154 24.3942 160.472 24.3942C160.785 24.3942 161.027 24.4775 161.199 24.6442C161.376 24.8108 161.464 25.0218 161.464 25.277C161.464 25.5322 161.376 25.7431 161.199 25.9098C161.027 26.0765 160.785 26.1598 160.472 26.1598ZM163.668 34.9957V28.7067H162.394V27.3785H163.668V27.0426C163.668 26.6155 163.704 26.2431 163.777 25.9254C163.855 25.6025 163.988 25.3343 164.175 25.1207C164.368 24.9072 164.631 24.7483 164.965 24.6442C165.303 24.5348 165.735 24.4801 166.261 24.4801H167.043V25.7457H166.347C165.915 25.7457 165.639 25.8551 165.519 26.0739C165.405 26.2874 165.347 26.6129 165.347 27.0504V27.3785H167.05V28.7067H165.347V34.9957H163.668ZM168.457 34.9957V27.3785H170.152V34.9957H168.457ZM169.308 26.1598C168.991 26.1598 168.746 26.0765 168.574 25.9098C168.402 25.7431 168.316 25.5348 168.316 25.2848C168.316 25.0244 168.402 24.8108 168.574 24.6442C168.746 24.4775 168.991 24.3942 169.308 24.3942C169.621 24.3942 169.863 24.4775 170.035 24.6442C170.212 24.8108 170.3 25.0218 170.3 25.277C170.3 25.5322 170.212 25.7431 170.035 25.9098C169.863 26.0765 169.621 26.1598 169.308 26.1598ZM175.465 35.1129C174.762 35.1129 174.134 34.9749 173.582 34.6989C173.03 34.4176 172.592 33.9879 172.27 33.4098C171.952 32.8317 171.793 32.0999 171.793 31.2145C171.793 30.3239 171.947 29.5869 172.254 29.0035C172.566 28.415 172.996 27.9775 173.543 27.691C174.095 27.3994 174.736 27.2535 175.465 27.2535C176.079 27.2535 176.634 27.3551 177.129 27.5582C177.624 27.7614 178.017 28.066 178.309 28.4723C178.605 28.8785 178.762 29.3916 178.777 30.0114H177.129C177.103 29.5686 176.947 29.2197 176.66 28.9645C176.374 28.7093 175.98 28.5817 175.48 28.5817C174.809 28.5817 174.314 28.8134 173.996 29.277C173.678 29.7353 173.52 30.3811 173.52 31.2145C173.52 31.7561 173.59 32.2197 173.73 32.6051C173.871 32.9905 174.085 33.2848 174.371 33.4879C174.663 33.691 175.033 33.7926 175.48 33.7926C175.991 33.7926 176.4 33.6572 176.707 33.3864C177.014 33.1155 177.176 32.7249 177.191 32.2145H178.84C178.824 32.8499 178.668 33.3837 178.371 33.816C178.074 34.2483 177.673 34.5739 177.168 34.7926C176.668 35.0061 176.1 35.1129 175.465 35.1129ZM180.473 34.9957V27.3785H182.168V34.9957H180.473ZM181.325 26.1598C181.007 26.1598 180.762 26.0765 180.59 25.9098C180.418 25.7431 180.332 25.5348 180.332 25.2848C180.332 25.0244 180.418 24.8108 180.59 24.6442C180.762 24.4775 181.007 24.3942 181.325 24.3942C181.637 24.3942 181.879 24.4775 182.051 24.6442C182.228 24.8108 182.317 25.0218 182.317 25.277C182.317 25.5322 182.228 25.7431 182.051 25.9098C181.879 26.0765 181.637 26.1598 181.325 26.1598ZM186.161 35.1285C185.723 35.1285 185.32 35.0478 184.95 34.8864C184.585 34.7197 184.291 34.4723 184.067 34.1442C183.843 33.8108 183.731 33.3968 183.731 32.902C183.731 32.2093 183.942 31.6858 184.364 31.3317C184.791 30.9775 185.387 30.7353 186.153 30.6051C186.924 30.4749 187.825 30.402 188.856 30.3864V29.9176C188.856 29.3499 188.715 28.9593 188.434 28.7457C188.153 28.5322 187.796 28.4254 187.364 28.4254C186.895 28.4254 186.505 28.54 186.192 28.7692C185.88 28.9983 185.723 29.3655 185.723 29.8707H184.122C184.122 29.2353 184.257 28.7275 184.528 28.3473C184.804 27.9619 185.184 27.6832 185.669 27.5114C186.158 27.3395 186.723 27.2535 187.364 27.2535C187.796 27.2535 188.202 27.2926 188.583 27.3707C188.963 27.4489 189.296 27.5869 189.583 27.7848C189.874 27.9775 190.101 28.2457 190.262 28.5895C190.429 28.928 190.512 29.3629 190.512 29.8942V34.9957H188.934L188.872 33.9254C188.538 34.3004 188.148 34.5947 187.7 34.8082C187.257 35.0218 186.744 35.1285 186.161 35.1285ZM186.669 33.9254C187.127 33.9254 187.544 33.8134 187.919 33.5895C188.294 33.3655 188.601 33.0921 188.84 32.7692V31.3864C187.601 31.3916 186.721 31.5061 186.2 31.7301C185.679 31.9541 185.419 32.316 185.419 32.816C185.419 33.1702 185.528 33.4436 185.747 33.6364C185.971 33.8291 186.278 33.9254 186.669 33.9254ZM195.263 34.9957C194.57 34.9957 194.036 34.902 193.661 34.7145C193.286 34.5218 193.026 34.2379 192.88 33.8629C192.739 33.4827 192.669 33.0087 192.669 32.441V28.7067H191.395V27.3785H192.669V25.6051H194.349V27.3785H196.122V28.7067H194.349V32.3395C194.349 32.777 194.406 33.1077 194.52 33.3317C194.64 33.5556 194.916 33.6676 195.349 33.6676H196.122V34.9957H195.263ZM197.482 34.9957V27.3785H199.177V34.9957H197.482ZM198.333 26.1598C198.016 26.1598 197.771 26.0765 197.599 25.9098C197.427 25.7431 197.341 25.5348 197.341 25.2848C197.341 25.0244 197.427 24.8108 197.599 24.6442C197.771 24.4775 198.016 24.3942 198.333 24.3942C198.646 24.3942 198.888 24.4775 199.06 24.6442C199.237 24.8108 199.325 25.0218 199.325 25.277C199.325 25.5322 199.237 25.7431 199.06 25.9098C198.888 26.0765 198.646 26.1598 198.333 26.1598ZM204.513 35.1207C203.758 35.1207 203.102 34.9671 202.545 34.6598C201.992 34.3473 201.565 33.8994 201.263 33.316C200.966 32.7275 200.818 32.0244 200.818 31.2067C200.818 30.3733 200.966 29.6598 201.263 29.066C201.565 28.4723 201.992 28.0192 202.545 27.7067C203.102 27.3942 203.758 27.2379 204.513 27.2379C205.289 27.2379 205.956 27.3942 206.513 27.7067C207.076 28.0192 207.508 28.4723 207.81 29.066C208.117 29.6598 208.271 30.3733 208.271 31.2067C208.271 32.0244 208.117 32.7275 207.81 33.316C207.508 33.8994 207.076 34.3473 206.513 34.6598C205.956 34.9671 205.289 35.1207 204.513 35.1207ZM204.513 33.8082C205.024 33.8082 205.427 33.6936 205.724 33.4645C206.021 33.2353 206.232 32.9254 206.357 32.5348C206.482 32.139 206.545 31.6962 206.545 31.2067C206.545 30.7067 206.482 30.2561 206.357 29.8551C206.232 29.4541 206.021 29.139 205.724 28.9098C205.427 28.6754 205.024 28.5582 204.513 28.5582C204.024 28.5582 203.636 28.6754 203.349 28.9098C203.063 29.139 202.857 29.4541 202.732 29.8551C202.607 30.2561 202.545 30.7067 202.545 31.2067C202.545 31.6962 202.607 32.139 202.732 32.5348C202.857 32.9254 203.063 33.2353 203.349 33.4645C203.636 33.6936 204.024 33.8082 204.513 33.8082ZM209.904 34.9957V27.3785H211.529L211.568 28.5348C211.818 28.2171 212.157 27.928 212.584 27.6676C213.011 27.402 213.56 27.2692 214.232 27.2692C215.04 27.2692 215.644 27.5114 216.045 27.9957C216.451 28.4749 216.654 29.1624 216.654 30.0582V34.9957H214.967V30.2848C214.967 29.9619 214.928 29.678 214.85 29.4332C214.771 29.1832 214.639 28.9905 214.451 28.8551C214.269 28.7145 214.016 28.6442 213.693 28.6442C213.204 28.6442 212.787 28.7587 212.443 28.9879C212.105 29.2119 211.823 29.4671 211.6 29.7535V34.9957H209.904Z" fill="#D7D7D7"/>
<path d="M43.9825 183.029V174.021H41.0841V172.513H48.67V174.021H45.7872V183.029H43.9825ZM51.6859 183.154C50.9307 183.154 50.2745 183 49.7172 182.693C49.1651 182.38 48.738 181.932 48.4359 181.349C48.1391 180.76 47.9906 180.057 47.9906 179.24C47.9906 178.406 48.1391 177.693 48.4359 177.099C48.738 176.505 49.1651 176.052 49.7172 175.74C50.2745 175.427 50.9307 175.271 51.6859 175.271C52.462 175.271 53.1286 175.427 53.6859 175.74C54.2484 176.052 54.6807 176.505 54.9828 177.099C55.2901 177.693 55.4437 178.406 55.4437 179.24C55.4437 180.057 55.2901 180.76 54.9828 181.349C54.6807 181.932 54.2484 182.38 53.6859 182.693C53.1286 183 52.462 183.154 51.6859 183.154ZM51.6859 181.841C52.1964 181.841 52.6 181.726 52.8969 181.497C53.1937 181.268 53.4047 180.958 53.5297 180.568C53.6547 180.172 53.7172 179.729 53.7172 179.24C53.7172 178.74 53.6547 178.289 53.5297 177.888C53.4047 177.487 53.1937 177.172 52.8969 176.943C52.6 176.708 52.1964 176.591 51.6859 176.591C51.1964 176.591 50.8083 176.708 50.5219 176.943C50.2354 177.172 50.0297 177.487 49.9047 177.888C49.7797 178.289 49.7172 178.74 49.7172 179.24C49.7172 179.729 49.7797 180.172 49.9047 180.568C50.0297 180.958 50.2354 181.268 50.5219 181.497C50.8083 181.726 51.1964 181.841 51.6859 181.841ZM60.3659 183.154C59.6107 183.154 58.9545 183 58.3972 182.693C57.8451 182.38 57.418 181.932 57.1159 181.349C56.8191 180.76 56.6706 180.057 56.6706 179.24C56.6706 178.406 56.8191 177.693 57.1159 177.099C57.418 176.505 57.8451 176.052 58.3972 175.74C58.9545 175.427 59.6107 175.271 60.3659 175.271C61.142 175.271 61.8086 175.427 62.3659 175.74C62.9284 176.052 63.3607 176.505 63.6628 177.099C63.9701 177.693 64.1237 178.406 64.1237 179.24C64.1237 180.057 63.9701 180.76 63.6628 181.349C63.3607 181.932 62.9284 182.38 62.3659 182.693C61.8086 183 61.142 183.154 60.3659 183.154ZM60.3659 181.841C60.8764 181.841 61.28 181.726 61.5769 181.497C61.8737 181.268 62.0847 180.958 62.2097 180.568C62.3347 180.172 62.3972 179.729 62.3972 179.24C62.3972 178.74 62.3347 178.289 62.2097 177.888C62.0847 177.487 61.8737 177.172 61.5769 176.943C61.28 176.708 60.8764 176.591 60.3659 176.591C59.8764 176.591 59.4883 176.708 59.2019 176.943C58.9154 177.172 58.7097 177.487 58.5847 177.888C58.4597 178.289 58.3972 178.74 58.3972 179.24C58.3972 179.729 58.4597 180.172 58.5847 180.568C58.7097 180.958 58.9154 181.268 59.2019 181.497C59.4883 181.726 59.8764 181.841 60.3659 181.841ZM68.2881 183.029C67.5902 183.029 67.0511 182.935 66.6709 182.747C66.2959 182.555 66.0355 182.271 65.8897 181.896C65.7491 181.516 65.6787 181.042 65.6787 180.474V172.513H67.3662V180.372C67.3662 180.81 67.4235 181.141 67.5381 181.365C67.6527 181.583 67.9261 181.693 68.3584 181.693H68.7725V183.029H68.2881ZM69.89 183.029V175.411H71.5853V183.029H69.89ZM70.7416 174.193C70.4239 174.193 70.1791 174.109 70.0072 173.943C69.8353 173.776 69.7494 173.568 69.7494 173.318C69.7494 173.057 69.8353 172.844 70.0072 172.677C70.1791 172.51 70.4239 172.427 70.7416 172.427C71.0541 172.427 71.2962 172.51 71.4681 172.677C71.6452 172.844 71.7337 173.055 71.7337 173.31C71.7337 173.565 71.6452 173.776 71.4681 173.943C71.2962 174.109 71.0541 174.193 70.7416 174.193ZM73.6325 183.029V175.411H75.2575L75.2966 176.568C75.5466 176.25 75.8851 175.961 76.3122 175.7C76.7393 175.435 77.2887 175.302 77.9606 175.302C78.7679 175.302 79.3721 175.544 79.7731 176.029C80.1794 176.508 80.3825 177.195 80.3825 178.091V183.029H78.695V178.318C78.695 177.995 78.6559 177.711 78.5778 177.466C78.4997 177.216 78.3669 177.023 78.1794 176.888C77.9971 176.747 77.7445 176.677 77.4216 176.677C76.932 176.677 76.5153 176.792 76.1716 177.021C75.833 177.245 75.5518 177.5 75.3278 177.786V183.029H73.6325ZM85.1875 185.974C84.3229 185.974 83.6328 185.88 83.1172 185.693C82.6016 185.505 82.2292 185.255 82 184.943C81.776 184.635 81.6641 184.305 81.6641 183.95C81.6641 183.513 81.862 183.128 82.2578 182.794C82.6536 182.456 83.2708 182.219 84.1094 182.083L84.3984 181.497H85.3984C86.6589 181.497 87.5677 181.669 88.125 182.013C88.6823 182.351 88.9609 182.875 88.9609 183.583C88.9609 184.292 88.6406 184.867 88 185.31C87.3594 185.753 86.4219 185.974 85.1875 185.974ZM85.1562 184.849C85.9479 184.849 86.5052 184.742 86.8281 184.529C87.1562 184.315 87.3203 184.049 87.3203 183.732C87.3203 183.539 87.263 183.372 87.1484 183.232C87.0391 183.096 86.8438 182.992 86.5625 182.919C86.2865 182.841 85.8984 182.802 85.3984 182.802H84.1328C83.8516 182.885 83.6302 183.016 83.4688 183.193C83.3125 183.375 83.2344 183.583 83.2344 183.818C83.2344 184.083 83.3828 184.32 83.6797 184.529C83.9818 184.742 84.474 184.849 85.1562 184.849ZM84.1094 182.724C83.5885 182.667 83.1719 182.56 82.8594 182.404C82.5521 182.247 82.3281 182.07 82.1875 181.872C82.0521 181.669 81.9844 181.474 81.9844 181.286C81.9844 180.995 82.0964 180.74 82.3203 180.521C82.5443 180.297 82.8958 180.107 83.375 179.95L84.2344 180.349C83.9583 180.417 83.7318 180.505 83.5547 180.615C83.3828 180.724 83.2969 180.851 83.2969 180.997C83.2969 181.101 83.349 181.19 83.4531 181.263C83.5573 181.336 83.737 181.393 83.9922 181.435C84.2474 181.476 84.6016 181.497 85.0547 181.497L84.1094 182.724ZM85.0703 180.583C84.4141 180.583 83.8542 180.463 83.3906 180.224C82.9323 179.979 82.5833 179.659 82.3438 179.263C82.1094 178.862 81.9922 178.43 81.9922 177.966C81.9922 177.482 82.112 177.042 82.3516 176.646C82.5911 176.245 82.9427 175.927 83.4062 175.693C83.875 175.453 84.4453 175.333 85.1172 175.333C85.8047 175.333 86.375 175.453 86.8281 175.693C87.2812 175.927 87.6198 176.245 87.8438 176.646C88.0729 177.042 88.1875 177.482 88.1875 177.966C88.1875 178.44 88.0703 178.878 87.8359 179.279C87.6068 179.674 87.263 179.992 86.8047 180.232C86.3464 180.466 85.7682 180.583 85.0703 180.583ZM85.0625 179.521C85.5104 179.521 85.8802 179.391 86.1719 179.13C86.4635 178.865 86.6094 178.476 86.6094 177.966C86.6094 177.435 86.4714 177.039 86.1953 176.779C85.9193 176.518 85.5599 176.388 85.1172 176.388C84.6745 176.388 84.3073 176.523 84.0156 176.794C83.7292 177.06 83.5859 177.45 83.5859 177.966C83.5859 178.482 83.7344 178.87 84.0312 179.13C84.3333 179.391 84.6771 179.521 85.0625 179.521ZM87.1484 176.333L86.5859 175.693C86.7943 175.177 87.0964 174.825 87.4922 174.638C87.888 174.45 88.3776 174.354 88.9609 174.349V175.654C88.5755 175.654 88.2214 175.693 87.8984 175.771C87.5807 175.844 87.3307 176.031 87.1484 176.333Z" fill="#D7D7D7"/>
<path d="M256.964 183.029V172.513H261.112C261.753 172.513 262.331 172.609 262.847 172.802C263.362 172.995 263.771 173.299 264.073 173.716C264.381 174.133 264.534 174.68 264.534 175.357C264.534 176.023 264.352 176.591 263.987 177.06C263.623 177.529 263.078 177.851 262.355 178.029C262.776 178.096 263.118 178.229 263.378 178.427C263.638 178.625 263.849 178.893 264.011 179.232C264.177 179.57 264.326 179.987 264.456 180.482L265.151 183.029H263.284L262.737 180.802C262.633 180.359 262.511 179.99 262.37 179.693C262.23 179.391 262.042 179.164 261.808 179.013C261.573 178.862 261.256 178.786 260.855 178.786H258.761V183.029H256.964ZM258.761 177.302H260.839C261.203 177.302 261.524 177.237 261.8 177.107C262.081 176.976 262.302 176.789 262.464 176.544C262.625 176.294 262.706 175.995 262.706 175.646C262.706 175.12 262.547 174.716 262.23 174.435C261.917 174.154 261.482 174.013 260.925 174.013H258.761V177.302ZM268.863 183.138C268.035 183.138 267.417 182.896 267.011 182.411C266.605 181.927 266.402 181.25 266.402 180.38V175.411H268.089V180.169C268.089 180.471 268.128 180.74 268.206 180.974C268.285 181.208 268.423 181.393 268.62 181.529C268.818 181.659 269.092 181.724 269.441 181.724C269.93 181.724 270.344 181.62 270.683 181.411C271.027 181.198 271.313 180.945 271.542 180.654V175.411H273.23V183.029H271.597L271.566 181.865C271.316 182.182 270.969 182.474 270.527 182.74C270.084 183.005 269.529 183.138 268.863 183.138ZM275.277 183.029V175.411H276.902L276.941 176.568C277.191 176.25 277.53 175.961 277.957 175.7C278.384 175.435 278.933 175.302 279.605 175.302C280.412 175.302 281.017 175.544 281.418 176.029C281.824 176.508 282.027 177.195 282.027 178.091V183.029H280.34V178.318C280.34 177.995 280.3 177.711 280.222 177.466C280.144 177.216 280.011 177.023 279.824 176.888C279.642 176.747 279.389 176.677 279.066 176.677C278.577 176.677 278.16 176.792 277.816 177.021C277.478 177.245 277.196 177.5 276.972 177.786V183.029H275.277ZM286.902 183.029C286.21 183.029 285.676 182.935 285.301 182.747C284.926 182.555 284.665 182.271 284.52 181.896C284.379 181.516 284.309 181.042 284.309 180.474V176.74H283.035V175.411H284.309V173.638H285.988V175.411H287.762V176.74H285.988V180.372C285.988 180.81 286.046 181.141 286.16 181.365C286.28 181.588 286.556 181.7 286.988 181.7H287.762V183.029H286.902ZM289.121 183.029V175.411H290.817V183.029H289.121ZM289.973 174.193C289.655 174.193 289.41 174.109 289.239 173.943C289.067 173.776 288.981 173.568 288.981 173.318C288.981 173.057 289.067 172.844 289.239 172.677C289.41 172.51 289.655 172.427 289.973 172.427C290.285 172.427 290.528 172.51 290.7 172.677C290.877 172.844 290.965 173.055 290.965 173.31C290.965 173.565 290.877 173.776 290.7 173.943C290.528 174.109 290.285 174.193 289.973 174.193ZM292.864 183.029V175.411H294.489L294.528 176.568C294.768 176.25 295.103 175.961 295.536 175.7C295.973 175.435 296.515 175.302 297.161 175.302C297.968 175.302 298.567 175.547 298.958 176.036C299.348 176.526 299.544 177.211 299.544 178.091V183.029H297.848V178.318C297.848 177.995 297.809 177.711 297.731 177.466C297.658 177.216 297.528 177.023 297.34 176.888C297.158 176.747 296.903 176.677 296.575 176.677C296.106 176.677 295.708 176.792 295.38 177.021C295.051 177.245 294.778 177.5 294.559 177.786V183.029H292.864ZM302.825 183.029V178.318C302.825 177.995 302.786 177.711 302.708 177.466C302.635 177.216 302.505 177.023 302.317 176.888C302.135 176.747 301.88 176.677 301.551 176.677C301.083 176.677 300.684 176.786 300.356 177.005C300.028 177.219 299.747 177.469 299.512 177.755L299.286 176.63C299.598 176.292 299.989 175.987 300.458 175.716C300.932 175.44 301.492 175.302 302.137 175.302C302.939 175.302 303.536 175.547 303.926 176.036C304.317 176.526 304.512 177.211 304.512 178.091V183.029H302.825ZM309.817 183.169C308.984 183.169 308.289 183.005 307.731 182.677C307.179 182.344 306.765 181.88 306.489 181.286C306.213 180.687 306.075 179.995 306.075 179.208C306.075 178.417 306.208 177.729 306.474 177.146C306.744 176.557 307.145 176.101 307.677 175.779C308.213 175.45 308.882 175.286 309.685 175.286C310.768 175.286 311.622 175.609 312.247 176.255C312.872 176.901 313.185 177.823 313.185 179.021C313.185 179.094 313.179 179.185 313.169 179.294C313.164 179.398 313.156 179.474 313.145 179.521H307.763C307.768 179.953 307.838 180.351 307.974 180.716C308.114 181.075 308.336 181.365 308.638 181.583C308.94 181.802 309.333 181.911 309.817 181.911C310.338 181.911 310.747 181.797 311.044 181.568C311.341 181.333 311.497 180.99 311.513 180.536H313.177C313.151 181.099 312.997 181.578 312.716 181.974C312.44 182.365 312.054 182.661 311.56 182.865C311.07 183.068 310.489 183.169 309.817 183.169ZM307.778 178.388H311.505C311.489 177.773 311.317 177.307 310.989 176.99C310.666 176.667 310.231 176.505 309.685 176.505C309.122 176.505 308.674 176.667 308.341 176.99C308.013 177.312 307.825 177.779 307.778 178.388Z" fill="#D7D7D7"/>
<defs>
<linearGradient id="paint0_linear_3369_11619" x1="179.095" y1="104.761" x2="145.406" y2="147.484" gradientUnits="userSpaceOnUse">
<stop stop-color="#0090FF"/>
<stop offset="0.698054" stop-color="#8DC8E8"/>
</linearGradient>
</defs>
</svg>
