<?xml version="1.0" encoding="UTF-8"?><svg id="Layer_1" xmlns="http://www.w3.org/2000/svg" xmlns:xlink="http://www.w3.org/1999/xlink" viewBox="0 0 639.53 748.59"><defs><linearGradient id="linear-gradient" x1="436.89" y1="742" x2="-33.57" y2="145.39" gradientTransform="translate(0 840.84) scale(1 -1)" gradientUnits="userSpaceOnUse"><stop offset="0" stop-color="#0090ff"/><stop offset=".7" stop-color="#8dc8e8"/></linearGradient></defs><path d="M.85,160.43C-6.96,94.47,40.17,34.67,106.13,26.86L315.77,2.04c158.88-18.81,302.92,94.73,321.73,253.61,18.68,157.79-93.18,300.95-250.35,321.33l3.09,26.14c7.81,65.96-39.33,125.76-105.28,133.57l-93.47,11.07c-65.96,7.81-125.76-39.33-133.57-105.28L.85,160.43ZM302.86,613.45c2.1,17.7-10.55,33.74-28.25,35.84l-93.47,11.07c-17.7,2.1-33.74-10.55-35.84-28.25l-57.08-482.03c-2.1-17.7,10.55-33.75,28.25-35.84l209.64-24.82c110.62-13.1,210.91,65.96,224.01,176.57,13.1,110.62-65.96,210.91-176.57,224.01l-84.12,9.96,13.44,113.5Z" style="fill:url(#linear-gradient); fill-rule:evenodd; stroke-width:0px;"/><path d="M44.54,155.26c-4.95-41.83,24.94-79.75,66.77-84.7l209.64-24.82c134.75-15.96,256.91,80.34,272.87,215.09,15.96,134.75-80.34,256.91-215.09,272.87l-40.43,4.79,8.27,69.81c4.95,41.83-24.94,79.75-66.77,84.7l-93.47,11.07c-41.83,4.95-79.75-24.94-84.7-66.77L44.54,155.26ZM302.87,613.45c2.1,17.7-10.55,33.74-28.25,35.84l-93.47,11.07c-17.7,2.1-33.74-10.55-35.84-28.25l-57.08-482.03c-2.1-17.7,10.55-33.74,28.25-35.84l209.64-24.82c110.62-13.1,210.91,65.96,224.01,176.57,13.1,110.62-65.96,210.91-176.57,224.01l-84.12,9.96,13.44,113.5Z" style="fill:#211d26; fill-rule:evenodd; stroke-width:0px;"/><path d="M116.45,114.24c-17.7,2.1-30.35,18.14-28.25,35.84l57.08,482.03c2.1,17.7,18.14,30.35,35.84,28.25l93.47-11.07c17.7-2.1,30.35-18.14,28.25-35.84l-13.44-113.5,84.12-9.96c110.62-13.1,189.67-113.39,176.57-224.01-13.1-110.62-113.39-189.67-224.01-176.57l-84.12,9.96-60.4,7.15-65.11,7.71Z" style="fill:#fff; fill-rule:evenodd; stroke-width:0px;"/><path d="M224.61,199.86l-10.26,1.19c-25.08,2.92-43.05,25.61-40.14,50.7l8.73,75.12c2.92,25.08,25.61,43.05,50.7,40.14l10.26-1.19c45.83-5.33,78.66-46.8,73.33-92.62-5.33-45.83-46.8-78.66-92.62-73.33Z" style="fill:#211d26; fill-rule:evenodd; stroke-width:0px;"/><path d="M219.61,279.64c-1.14-8.09,1.78-16.06,4.41-23.79,3.83-11.23,4.76-21.07-3.14-23.77-7.03-2.4-13.18,5.66-17.01,16.89-3.6,10.55-3.95,22.36-2.9,33.46.08.86.18,1.72.31,2.6.23,1.6.49,3.2.79,4.82,2.29,12.36,4.52,25.5,11.8,35.75,7.67,10.8,16.17,16.66,24.82,11.79,7.83-5.56,4.71-16.52-2.96-27.32-5.82-8.19-13.65-15.59-15.38-25.48-.14-.77-.26-1.54-.37-2.31-.13-.88-.25-1.76-.37-2.62Z" style="fill:#fff; fill-rule:evenodd; stroke-width:0px;"/><path d="M276.47,245.95c0,7.89-6.4,14.29-14.29,14.29s-14.29-6.4-14.29-14.29,6.4-14.29,14.29-14.29,14.29,6.4,14.29,14.29Z" style="fill:#fff; stroke-width:0px;"/><path d="M383.23,178.85l-10.26,1.19c-25.08,2.92-43.05,25.62-40.14,50.7l8.73,75.12c2.92,25.08,25.61,43.05,50.7,40.14l10.26-1.19c45.83-5.33,78.66-46.8,73.33-92.62-5.33-45.83-46.8-78.66-92.62-73.33Z" style="fill:#211d26; fill-rule:evenodd; stroke-width:0px;"/><path d="M378.24,258.63c-1.14-8.09,1.78-16.06,4.41-23.79,3.83-11.23,4.76-21.07-3.14-23.77-7.03-2.4-13.18,5.67-17.01,16.89-3.6,10.55-3.95,22.36-2.9,33.46.08.86.18,1.72.31,2.6.23,1.6.49,3.2.79,4.82,2.29,12.36,4.52,25.5,11.8,35.75,7.67,10.8,16.17,16.67,24.82,11.79,7.83-5.56,4.71-16.52-2.96-27.32-5.82-8.19-13.65-15.59-15.38-25.48-.14-.77-.26-1.54-.37-2.31-.13-.88-.25-1.76-.37-2.62Z" style="fill:#fff; fill-rule:evenodd; stroke-width:0px;"/><path d="M435.1,224.94c0,7.89-6.4,14.29-14.29,14.29s-14.29-6.4-14.29-14.29,6.4-14.29,14.29-14.29,14.29,6.4,14.29,14.29Z" style="fill:#fff; stroke-width:0px;"/></svg>