<svg width="17" height="16" viewBox="0 0 17 16" fill="none" xmlns="http://www.w3.org/2000/svg">
<path opacity="0.8" d="M5.20703 3.5C4.51668 3.5 3.95703 4.05964 3.95703 4.75V11.25C3.95703 11.9404 4.51668 12.5 5.20703 12.5H11.707C12.3974 12.5 12.957 11.9404 12.957 11.25V9.75C12.957 9.33579 13.2928 9 13.707 9C14.1212 9 14.457 9.33579 14.457 9.75V11.25C14.457 12.7688 13.2258 14 11.707 14H5.20703C3.68825 14 2.45703 12.7688 2.45703 11.25V4.75C2.45703 3.23122 3.68825 2 5.20703 2H6.70703C7.12124 2 7.45703 2.33579 7.45703 2.75C7.45703 3.16421 7.12124 3.5 6.70703 3.5H5.20703ZM8.45679 2.75C8.45679 2.33579 8.79257 2 9.20679 2H13.7068C14.121 2 14.4568 2.33579 14.4568 2.75V7.25C14.4568 7.66421 14.121 8 13.7068 8C13.2926 8 12.9568 7.66421 12.9568 7.25V4.56095L9.73711 7.78056C9.44422 8.07345 8.96934 8.07345 8.67645 7.78055C8.38356 7.48766 8.38357 7.01278 8.67646 6.71989L11.8964 3.5H9.20679C8.79257 3.5 8.45679 3.16421 8.45679 2.75Z" fill="#D7D7D7"/>
</svg>
