<svg width="70" height="71" viewBox="0 0 70 71" fill="none" xmlns="http://www.w3.org/2000/svg">
<path fill-rule="evenodd" clip-rule="evenodd" d="M12.2312 6.04917C10.2486 6.28392 8.83169 8.08143 9.06644 10.064L15.4601 64.0601C15.6948 66.0427 17.4923 67.4596 19.4749 67.2249L29.9451 65.9851C31.9277 65.7503 33.3446 63.9528 33.1098 61.9703L31.6044 49.2565L41.0275 48.1407C53.4186 46.6735 62.2742 35.4391 60.807 23.048C59.3397 10.6569 48.1053 1.80133 35.7142 3.26855L26.2911 4.38434L19.5252 5.18548L12.2312 6.04917ZM24.3366 15.6399L23.187 15.7736C20.3769 16.1003 18.3636 18.6433 18.6904 21.4535L19.6689 29.8693C19.9956 32.6794 22.5386 34.6927 25.3488 34.3659L26.4983 34.2323C31.6324 33.6353 35.3105 28.9894 34.7136 23.8552C34.1166 18.7211 29.4707 15.043 24.3366 15.6399ZM42.1044 13.2863L40.9549 13.42C38.1447 13.7467 36.1315 16.2897 36.4582 19.0999L37.4367 27.5157C37.7635 30.3258 40.3064 32.3391 43.1166 32.0123L44.2661 31.8787C49.4003 31.2817 53.0784 26.6358 52.4814 21.5016C51.8845 16.3675 47.2385 12.6894 42.1044 13.2863Z" fill="white"/>
<path fill-rule="evenodd" clip-rule="evenodd" d="M24.4094 19.5074C23.862 18.9514 23.0801 19.2346 22.4817 20.0783C22.0515 20.6848 21.9126 21.4394 21.7975 22.174C21.533 23.8633 21.6727 25.5912 22.2052 27.216L22.6351 28.5275C22.8441 29.1651 23.0662 29.817 23.515 30.3157C24.2894 31.176 25.3513 31.5115 26.0994 30.9356C27.2073 30.0827 26.4228 29.184 25.5102 27.9144C24.8708 27.0249 24.1685 25.9535 24.0098 24.5883C23.7879 22.6799 25.3421 20.4401 24.4094 19.5074Z" fill="white"/>
<path fill-rule="evenodd" clip-rule="evenodd" d="M42.1769 17.154C41.6295 16.598 40.8477 16.8812 40.2492 17.7249C39.8191 18.3314 39.6801 19.0861 39.5651 19.8207C39.3006 21.5099 39.4403 23.2378 39.9728 24.8626L40.4027 26.1742C40.6117 26.8117 40.8338 27.4637 41.2826 27.9623C42.0569 28.8226 43.1189 29.1582 43.867 28.5822C44.9748 27.7294 44.1904 26.8306 43.2777 25.561C42.6384 24.6716 41.9361 23.6001 41.7774 22.2349C41.5555 20.3266 43.1097 18.0868 42.1769 17.154Z" fill="white"/>
<path d="M30.1449 20.8035C30.1449 21.6875 29.4282 22.4042 28.5441 22.4042C27.6601 22.4042 26.9434 21.6875 26.9434 20.8035C26.9434 19.9194 27.6601 19.2027 28.5441 19.2027C29.4282 19.2027 30.1449 19.9194 30.1449 20.8035Z" fill="white"/>
<path d="M47.9203 18.4498C47.9203 19.3339 47.2036 20.0506 46.3195 20.0506C45.4354 20.0506 44.7188 19.3339 44.7188 18.4498C44.7188 17.5657 45.4354 16.849 46.3195 16.849C47.2036 16.849 47.9203 17.5657 47.9203 18.4498Z" fill="white"/>
</svg>
