<svg width="16" height="17" viewBox="0 0 16 17" fill="none" xmlns="http://www.w3.org/2000/svg">
<path fill-rule="evenodd" clip-rule="evenodd" d="M14.1005 5.52661L13.7805 4.77994L10.7939 1.79328L10.1005 1.52661H4.07388L3.06055 2.48661V14.4866L4.07388 15.4999H8.6582L8.53125 14.4866H4.07388V2.48661H9.08721V6.48661H13.0872V7.69299L14.1005 7.99768V5.52661ZM10.041 5.52663H13.0277L10.041 2.48663V5.52663ZM9.1986 9.49834C9.17414 9.29172 9.32181 9.10438 9.52843 9.07992L10.2886 8.98991L10.9938 8.90641L11.9758 8.79012C13.2672 8.63721 14.4381 9.56013 14.591 10.8515C14.7439 12.1429 13.821 13.3138 12.5296 13.4667L11.5475 13.583L11.7044 14.908C11.7289 15.1146 11.5812 15.302 11.3746 15.3264L10.2834 15.4556C10.0767 15.4801 9.88941 15.3324 9.86495 15.1258L9.1986 9.49834ZM10.669 10.0934L10.7888 10.0795C11.3239 10.0172 11.8081 10.4006 11.8703 10.9356C11.9325 11.4707 11.5492 11.9549 11.0141 12.0171L10.8943 12.0311C10.6014 12.0651 10.3364 11.8553 10.3023 11.5624L10.2003 10.6853C10.1663 10.3925 10.3761 10.1274 10.669 10.0934ZM12.5225 9.84808L12.6423 9.83415C13.1774 9.77194 13.6616 10.1553 13.7238 10.6903C13.786 11.2254 13.4027 11.7096 12.8676 11.7718L12.7478 11.7858C12.4549 11.8198 12.1899 11.61 12.1558 11.3171L12.0539 10.44C12.0198 10.1472 12.2296 9.88214 12.5225 9.84808Z" fill="#3B3B3B"/>
</svg>
