<svg width="100" height="20" viewBox="0 0 100 20" fill="none" xmlns="http://www.w3.org/2000/svg">
<path d="M97.1162 15.8251V4.45481H99.6468V15.8251H97.1162ZM98.3873 2.63557C97.9131 2.63557 97.5476 2.51118 97.2911 2.26239C97.0345 2.01361 96.9062 1.70262 96.9062 1.32945C96.9062 0.940719 97.0345 0.621963 97.2911 0.373178C97.5476 0.124393 97.9131 0 98.3873 0C98.8538 0 99.2153 0.124393 99.4718 0.373178C99.7362 0.621963 99.8683 0.936832 99.8683 1.31778C99.8683 1.69874 99.7362 2.01361 99.4718 2.26239C99.2153 2.51118 98.8538 2.63557 98.3873 2.63557Z" fill="#D7D7D7"/>
<path d="M88.3846 16.0234C87.7316 16.0234 87.129 15.9028 86.5771 15.6618C86.0328 15.4131 85.5936 15.0438 85.2593 14.554C84.925 14.0564 84.7578 13.4383 84.7578 12.6997C84.7578 11.6657 85.0727 10.8844 85.7024 10.3557C86.3399 9.82704 87.2301 9.46553 88.373 9.27116C89.5236 9.0768 90.8686 8.96796 92.408 8.94463V8.24493C92.408 7.3975 92.198 6.81441 91.7782 6.49565C91.3584 6.1769 90.8258 6.01752 90.1806 6.01752C89.4808 6.01752 88.8978 6.18856 88.4313 6.53064C87.9648 6.87272 87.7316 7.42082 87.7316 8.17496H85.3409C85.3409 7.22646 85.543 6.46844 85.9473 5.9009C86.3594 5.32559 86.9269 4.90965 87.6499 4.65309C88.3807 4.39653 89.2243 4.26825 90.1806 4.26825C90.8258 4.26825 91.4323 4.32656 91.9998 4.44318C92.5673 4.55979 93.0649 4.76582 93.4925 5.06125C93.9279 5.34891 94.2661 5.7493 94.5071 6.26242C94.7559 6.76776 94.8803 7.41694 94.8803 8.20994V15.8251H92.5246L92.4313 14.2274C91.9337 14.7872 91.3506 15.2265 90.682 15.5452C90.0212 15.864 89.2554 16.0234 88.3846 16.0234ZM89.1427 14.2274C89.8268 14.2274 90.4488 14.0603 91.0085 13.726C91.5683 13.3917 92.027 12.9835 92.3846 12.5015V10.4373C90.5343 10.4451 89.2204 10.6162 88.4429 10.9505C87.6655 11.2848 87.2768 11.8251 87.2768 12.5715C87.2768 13.1001 87.44 13.5083 87.7666 13.7959C88.1009 14.0836 88.5596 14.2274 89.1427 14.2274Z" fill="#D7D7D7"/>
<path d="M81.3079 15.965C80.7947 15.965 80.3749 15.8018 80.0484 15.4752C79.7219 15.1487 79.5586 14.7483 79.5586 14.2741C79.5586 13.7765 79.7219 13.3722 80.0484 13.0612C80.3749 12.7502 80.7947 12.5948 81.3079 12.5948C81.821 12.5948 82.2369 12.7502 82.5557 13.0612C82.8744 13.3722 83.0338 13.7765 83.0338 14.2741C83.0338 14.7483 82.8744 15.1487 82.5557 15.4752C82.2369 15.8018 81.821 15.965 81.3079 15.965Z" fill="#D7D7D7"/>
<path d="M70.6579 20V17.9359H71.6608C72.1117 17.9359 72.4888 17.8348 72.792 17.6326C73.0952 17.4383 73.3401 17.1118 73.5267 16.6531L73.8649 15.8251L69.3867 4.4548H72.0223L75.2176 13.3061L78.1214 4.4548H80.6753L76.5004 15.8251L76.0223 17.0729C75.7424 17.8192 75.4314 18.4023 75.0893 18.8221C74.7473 19.2497 74.3236 19.553 73.8182 19.7318C73.3206 19.9106 72.6948 20 71.9407 20H70.6579Z" fill="#D7D7D7"/>
<path d="M68.5499 15.8251C67.5159 15.8251 66.719 15.6851 66.1593 15.4053C65.5995 15.1176 65.2108 14.6939 64.9931 14.1341C64.7832 13.5666 64.6782 12.8591 64.6782 12.0117V6.43732H62.7773V4.45482H64.6782V1.80759H67.1855V4.45482H69.8327V6.43732H67.1855V11.8601C67.1855 12.5131 67.271 13.0068 67.4421 13.3411C67.6209 13.6754 68.0329 13.8426 68.6782 13.8426H69.8327V15.8251H68.5499Z" fill="#D7D7D7"/>
<path d="M51.7031 20V4.45484H54.1171L54.2337 6.25076C54.6458 5.63657 55.1589 5.15455 55.7731 4.80469C56.3873 4.44706 57.1103 4.26825 57.9422 4.26825C58.8518 4.26825 59.6448 4.48594 60.3212 4.92131C61.0054 5.35668 61.5379 6.00975 61.9189 6.88049C62.2998 7.75124 62.4903 8.85134 62.4903 10.1808C62.4903 11.4791 62.2843 12.5598 61.8722 13.4228C61.4679 14.2857 60.9043 14.9349 60.1813 15.3703C59.466 15.8057 58.6419 16.0272 57.709 16.035C56.9315 16.035 56.2473 15.8795 55.6565 15.5685C55.0656 15.2498 54.5875 14.8105 54.2221 14.2508V20H51.7031ZM57.1375 14.0525C58.0471 14.0525 58.7352 13.7182 59.2017 13.0496C59.6681 12.381 59.9014 11.4169 59.9014 10.1575C59.9014 8.85911 59.6837 7.87952 59.2483 7.21869C58.8129 6.55785 58.191 6.22743 57.3824 6.22743C56.6127 6.22743 55.9597 6.43735 55.4232 6.85717C54.8946 7.26922 54.4981 7.73958 54.2337 8.26825V12.1516C54.5058 12.6881 54.8868 13.139 55.3766 13.5044C55.8664 13.8698 56.4534 14.0525 57.1375 14.0525Z" fill="#D7D7D7"/>
<path d="M32.0938 15.8251V4.45483H34.5194L34.5777 6.18078C34.9353 5.70653 35.4368 5.27504 36.0821 4.88632C36.7351 4.48982 37.5437 4.29156 38.5077 4.29156C39.7128 4.29156 40.6069 4.65697 41.19 5.38777C41.773 6.11858 42.0646 7.14093 42.0646 8.45483V15.8251H39.534V8.79302C39.534 8.311 39.4757 7.88729 39.3591 7.52189C39.2502 7.14871 39.0558 6.86105 38.776 6.65891C38.5039 6.449 38.1229 6.34404 37.6331 6.34404C36.9334 6.34404 36.3386 6.51508 35.8489 6.85716C35.3591 7.19147 34.9509 7.57242 34.6244 8.00002V15.8251H32.0938ZM46.9626 15.8251V8.79302C46.9626 8.311 46.9042 7.88729 46.7876 7.52189C46.6788 7.14871 46.4844 6.86105 46.2045 6.65891C45.9324 6.449 45.5515 6.34404 45.0617 6.34404C44.362 6.34404 43.7672 6.50731 43.2774 6.83384C42.7876 7.1526 42.3678 7.52577 42.0179 7.95337L41.6798 6.27407C42.1462 5.76873 42.7293 5.31392 43.429 4.90964C44.1365 4.49759 44.9723 4.29156 45.9363 4.29156C47.1336 4.29156 48.0238 4.65697 48.6069 5.38777C49.19 6.11858 49.4815 7.14093 49.4815 8.45483V15.8251H46.9626Z" fill="#D7D7D7"/>
<path d="M24.7621 16.0117C23.6348 16.0117 22.6552 15.7823 21.8234 15.3236C20.9993 14.8571 20.3617 14.1885 19.9108 13.3178C19.4677 12.4393 19.2461 11.3897 19.2461 10.1691C19.2461 8.92518 19.4677 7.86006 19.9108 6.97377C20.3617 6.08747 20.9993 5.41108 21.8234 4.94461C22.6552 4.47814 23.6348 4.2449 24.7621 4.2449C25.9205 4.2449 26.9157 4.47814 27.7476 4.94461C28.5872 5.41108 29.2325 6.08747 29.6834 6.97377C30.1421 7.86006 30.3715 8.92518 30.3715 10.1691C30.3715 11.3897 30.1421 12.4393 29.6834 13.3178C29.2325 14.1885 28.5872 14.8571 27.7476 15.3236C26.9157 15.7823 25.9205 16.0117 24.7621 16.0117ZM24.7621 14.0525C25.524 14.0525 26.1266 13.8814 26.5697 13.5394C27.0129 13.1973 27.3277 12.7347 27.5143 12.1516C27.7009 11.5607 27.7942 10.8999 27.7942 10.1691C27.7942 9.42275 27.7009 8.75025 27.5143 8.15161C27.3277 7.55297 27.0129 7.08261 26.5697 6.74053C26.1266 6.39068 25.524 6.21575 24.7621 6.21575C24.0313 6.21575 23.4521 6.39068 23.0245 6.74053C22.5969 7.08261 22.2898 7.55297 22.1032 8.15161C21.9166 8.75025 21.8234 9.42275 21.8234 10.1691C21.8234 10.8999 21.9166 11.5607 22.1032 12.1516C22.2898 12.7347 22.5969 13.1973 23.0245 13.5394C23.4521 13.8814 24.0313 14.0525 24.7621 14.0525Z" fill="#D7D7D7"/>
<path d="M12.9531 15.8251V4.45483H15.3555L15.4138 6.40235C15.7247 5.77261 16.1679 5.26727 16.7432 4.88631C17.3263 4.49759 18.0571 4.30322 18.9356 4.30322H19.1572V6.5073H18.889C18.3681 6.5073 17.8938 6.56561 17.4662 6.68223C17.0464 6.79107 16.6732 6.96212 16.3467 7.19535C16.0202 7.42081 15.7325 7.70458 15.4837 8.04666V15.8251H12.9531Z" fill="#D7D7D7"/>
<path d="M0.457031 15.8251V0.128265H6.36957C7.37248 0.128265 8.27822 0.314854 9.08677 0.688032C9.9031 1.05344 10.5484 1.60154 11.0226 2.33235C11.5047 3.06315 11.7457 3.98055 11.7457 5.08453C11.7457 6.15742 11.5047 7.05538 11.0226 7.77841C10.5484 8.49367 9.9031 9.034 9.08677 9.3994C8.27822 9.75703 7.37248 9.93585 6.36957 9.93585H3.13925V15.8251H0.457031ZM3.13925 7.75509H6.13633C6.98376 7.75509 7.6718 7.53351 8.20047 7.09036C8.73691 6.63944 9.00514 5.97083 9.00514 5.08453C9.00514 4.14381 8.73691 3.44799 8.20047 2.99707C7.66403 2.54615 6.97598 2.32069 6.13633 2.32069H3.13925V7.75509Z" fill="#D7D7D7"/>
</svg>
