<svg width="829" height="938" viewBox="0 0 829 938" fill="none" xmlns="http://www.w3.org/2000/svg">
<g filter="url(#filter0_dd_3081_11561)">
<path fill-rule="evenodd" clip-rule="evenodd" d="M95.5513 207.952C87.7413 141.995 134.879 82.1954 200.836 74.3854L410.471 49.5626C569.346 30.7504 713.39 144.293 732.202 303.168C750.886 460.956 639.02 604.114 481.853 624.495L484.947 650.631C492.757 716.588 445.62 776.388 379.663 784.198L286.195 795.265C220.238 803.075 160.438 755.938 152.628 689.981L95.5513 207.952ZM397.568 660.978C399.664 678.676 387.015 694.723 369.316 696.818L275.848 707.886C258.149 709.982 242.103 697.333 240.007 679.634L182.931 197.606C180.835 179.907 193.484 163.86 211.182 161.765L420.818 136.942C531.435 123.844 631.725 202.898 644.823 313.515C657.921 424.131 578.867 524.422 468.25 537.52L384.129 547.481L397.568 660.978Z" fill="url(#paint0_linear_3081_11561)"/>
<path fill-rule="evenodd" clip-rule="evenodd" d="M139.249 202.78C134.296 160.952 164.189 123.029 206.017 118.076L415.653 93.2534C550.399 77.2983 672.566 173.597 688.521 308.343C704.476 443.088 608.177 565.256 473.432 581.211L433 585.998L441.266 655.806C446.219 697.633 416.326 735.556 374.498 740.509L281.03 751.577C239.202 756.53 201.279 726.636 196.326 684.809L139.249 202.78ZM397.576 660.979C399.672 678.677 387.023 694.724 369.324 696.82L275.856 707.887C258.158 709.983 242.111 697.334 240.015 679.635L182.939 197.607C180.843 179.908 193.492 163.862 211.19 161.766L420.826 136.943C531.443 123.845 631.733 202.899 644.831 313.516C657.929 424.133 578.875 524.423 468.258 537.521L384.137 547.482L397.576 660.979Z" fill="#211D26"/>
<path fill-rule="evenodd" clip-rule="evenodd" d="M211.156 161.766C193.457 163.862 180.808 179.908 182.904 197.607L239.981 679.635C242.076 697.334 258.123 709.983 275.821 707.887L369.29 696.82C386.988 694.724 399.637 678.677 397.541 660.979L384.102 547.482L468.223 537.521C578.84 524.423 657.894 424.132 644.796 313.516C631.698 202.899 531.408 123.845 420.791 136.943L336.67 146.904L276.27 154.056L211.156 161.766Z" fill="white"/>
<path fill-rule="evenodd" clip-rule="evenodd" d="M319.311 247.381L309.05 248.574C283.967 251.49 265.997 274.189 268.914 299.272L277.648 374.391C280.564 399.475 303.262 417.444 328.346 414.528L338.607 413.335C384.433 408.007 417.264 366.537 411.936 320.71C406.607 274.883 365.138 242.053 319.311 247.381Z" fill="#211D26"/>
<path fill-rule="evenodd" clip-rule="evenodd" d="M319.917 281.906C315.031 276.943 308.052 279.471 302.71 287.002C298.871 292.415 297.631 299.151 296.604 305.708Cnan nan nan nan 296.604 305.708L-nan -nanL296.604 305.708Cnan nan nan nan 296.604 305.708C294.243 320.786 295.49 336.21 300.243 350.712L304.08 362.419C305.946 368.11 307.928 373.929 311.934 378.38C318.846 386.059 328.325 389.054 335.002 383.914C351.818 370.968 319.79 356.838 316.35 327.258C314.37 310.224 328.243 290.232 319.917 281.906Z" fill="white"/>
<path d="M371.179 293.473C371.179 301.365 364.781 307.762 356.89 307.762C348.999 307.762 342.602 301.365 342.602 293.473C342.602 285.582 348.999 279.185 356.89 279.185C364.781 279.185 371.179 285.582 371.179 293.473Z" fill="white"/>
<path fill-rule="evenodd" clip-rule="evenodd" d="M477.936 226.371L467.675 227.564C442.592 230.481 424.622 253.179 427.539 278.262L436.273 353.381C439.189 378.465 461.887 396.435 486.971 393.518L497.232 392.325C543.058 386.997 575.889 345.527 570.561 299.7C565.232 253.873 523.763 221.043 477.936 226.371Z" fill="#211D26"/>
<path fill-rule="evenodd" clip-rule="evenodd" d="M478.573 260.896C473.687 255.933 466.708 258.461 461.367 265.992C457.527 271.406 456.287 278.142 455.26 284.699Cnan nan nan nan 455.26 284.699L-nan -nanL455.26 284.699Cnan nan nan nan 455.26 284.699C452.899 299.777 454.146 315.2 458.9 329.703L462.737 341.41C464.602 347.1 466.584 352.92 470.59 357.371C477.502 365.05 486.981 368.045 493.659 362.904C510.475 349.958 478.446 335.828 475.007 306.248C473.026 289.214 486.899 269.222 478.573 260.896Z" fill="white"/>
<path d="M529.827 272.465C529.827 280.356 523.43 286.753 515.539 286.753C507.647 286.753 501.25 280.356 501.25 272.465C501.25 264.573 507.647 258.176 515.539 258.176C523.43 258.176 529.827 264.573 529.827 272.465Z" fill="white"/>
</g>
<defs>
<filter id="filter0_dd_3081_11561" x="0.703545" y="0.523083" width="827.538" height="936.593" filterUnits="userSpaceOnUse" color-interpolation-filters="sRGB">
<feFlood flood-opacity="0" result="BackgroundImageFix"/>
<feColorMatrix in="SourceAlpha" type="matrix" values="0 0 0 0 0 0 0 0 0 0 0 0 0 0 0 0 0 0 127 0" result="hardAlpha"/>
<feOffset/>
<feGaussianBlur stdDeviation="5.87522"/>
<feComposite in2="hardAlpha" operator="out"/>
<feColorMatrix type="matrix" values="0 0 0 0 0 0 0 0 0 0 0 0 0 0 0 0 0 0 0.2 0"/>
<feBlend mode="normal" in2="BackgroundImageFix" result="effect1_dropShadow_3081_11561"/>
<feColorMatrix in="SourceAlpha" type="matrix" values="0 0 0 0 0 0 0 0 0 0 0 0 0 0 0 0 0 0 127 0" result="hardAlpha"/>
<feOffset dy="47.0017"/>
<feGaussianBlur stdDeviation="47.0017"/>
<feComposite in2="hardAlpha" operator="out"/>
<feColorMatrix type="matrix" values="0 0 0 0 0 0 0 0 0 0 0 0 0 0 0 0 0 0 0.24 0"/>
<feBlend mode="normal" in2="effect1_dropShadow_3081_11561" result="effect2_dropShadow_3081_11561"/>
<feBlend mode="normal" in="SourceGraphic" in2="effect2_dropShadow_3081_11561" result="shape"/>
</filter>
<linearGradient id="paint0_linear_3081_11561" x1="506.751" y1="126.767" x2="36.2877" y2="723.38" gradientUnits="userSpaceOnUse">
<stop stop-color="#0090FF"/>
<stop offset="0.698054" stop-color="#8DC8E8"/>
</linearGradient>
</defs>
</svg>
