<svg width="16" height="16" viewBox="0 0 16 16" fill="none" xmlns="http://www.w3.org/2000/svg">
<g clip-path="url(#clip0_5428_38896)">
<path d="M11.5772 0.378674C10.884 0.112056 10.1165 0.112057 9.4233 0.378674L5.96202 1.70994C5.38273 1.93274 5.00049 2.4893 5.00049 3.10995V4.21022C5.33249 4.16842 5.66849 4.16844 6.00049 4.21029V3.10995C6.00049 2.90307 6.1279 2.71755 6.321 2.64328L9.78228 1.31202C10.2444 1.13427 10.7561 1.13427 11.2182 1.31202L14.6795 2.64328C14.8726 2.71755 15 2.90307 15 3.10996V10.8899C15 11.0968 14.8726 11.2823 14.6795 11.3566L12 12.3871V12.8901C12 13.0941 11.9752 13.294 11.928 13.4863L15.0385 12.2899C15.6177 12.0671 16 11.5106 16 10.8899V3.10996C16 2.4893 15.6177 1.93274 15.0385 1.70994L11.5772 0.378674ZM14.0917 3.29414C13.9925 3.03641 13.7032 2.90783 13.4455 3.00696L10.6796 4.07075C10.5641 4.11519 10.4362 4.11519 10.3207 4.07075L7.5548 3.00696C7.29707 2.90783 7.00777 3.03641 6.90864 3.29414C6.80951 3.55188 6.93809 3.84118 7.19582 3.94031L9.96169 5.0041C10.3083 5.13741 10.692 5.13741 11.0386 5.0041L13.8045 3.94031C14.0622 3.84118 14.1908 3.55188 14.0917 3.29414ZM9.09166 8.29432C8.99253 8.03658 8.70323 7.90801 8.4455 8.00713L5.50014 9.13996L2.55479 8.00713C2.29705 7.90801 2.00776 8.03658 1.90863 8.29432C1.8095 8.55205 1.93807 8.84135 2.19581 8.94048L5.00014 10.0191V12.5088C5.00014 12.785 5.224 13.0088 5.50014 13.0088C5.77629 13.0088 6.00014 12.785 6.00014 12.5088V10.0191L8.80448 8.94048C9.06221 8.84135 9.19079 8.55205 9.09166 8.29432ZM6.57717 5.37867C5.88397 5.11206 5.11651 5.11206 4.4233 5.37867L0.962019 6.70994C0.38273 6.93274 0.000488281 7.4893 0.000488281 8.10995V12.8899C0.000488281 13.5106 0.382731 14.0671 0.962019 14.2899L4.4233 15.6212C5.11651 15.8878 5.88397 15.8878 6.57718 15.6212L10.0385 14.2899C10.6177 14.0671 11 13.5106 11 12.8899V8.10996C11 7.4893 10.6177 6.93274 10.0385 6.70994L6.57717 5.37867ZM4.78228 6.31202C5.24442 6.13427 5.75606 6.13427 6.21819 6.31202L9.67948 7.64328C9.87257 7.71755 9.99999 7.90307 9.99999 8.10996V12.8899C9.99999 13.0968 9.87257 13.2823 9.67948 13.3566L6.2182 14.6878C5.75606 14.8656 5.24442 14.8656 4.78228 14.6878L1.321 13.3566C1.1279 13.2823 1.00049 13.0968 1.00049 12.8899V8.10995C1.00049 7.90307 1.1279 7.71755 1.321 7.64328L4.78228 6.31202Z" fill="#CCCCCC"/>
</g>
<defs>
<clipPath id="clip0_5428_38896">
<rect width="16" height="16" fill="white"/>
</clipPath>
</defs>
</svg>
